<?xml version="1.0" encoding="iso-8859-1"?>
<!DOCTYPE svg PUBLIC "-//W3C//DTD SVG 1.1//EN" "http://www.w3.org/Graphics/SVG/1.1/DTD/svg11.dtd">
<svg xmlns="http://www.w3.org/2000/svg" xmlns:xlink="http://www.w3.org/1999/xlink" viewBox="0 0 192.701 192.701" preserveAspectRatio="xMidYMid meet" class="arrow-up2">
	<path fill="#888" d="M20.746,104.169l75.61-74.528l75.61,74.54c4.74,4.704,12.439,4.704,17.179,0s4.74-12.319,0-17.011l-84.2-82.997 c-4.559-4.511-12.608-4.535-17.191,0l-84.2,83.009c-4.74,4.692-4.74,12.319,0,17.011C8.307,108.873,16.006,108.873,20.746,104.169 z"/>
	<path fill="#888" d="M104.946,88.373c-4.559-4.511-12.608-4.535-17.191,0l-84.2,82.997c-4.74,4.704-4.74,12.319,0,17.011 c4.74,4.704,12.439,4.704,17.179,0l75.622-74.528l75.61,74.54c4.74,4.704,12.439,4.704,17.179,0s4.74-12.319,0-17.011 L104.946,88.373z"/>
</svg>
